<?xml version="1.0" encoding="UTF-8" standalone="no"?>
<!-- Created with Inkscape (http://www.inkscape.org/) -->

<svg
   version="1.1"
   id="svg2"
   xml:space="preserve"
   width="512"
   height="512"
   viewBox="0 0 512 512"
   sodipodi:docname="2486045.ai.svg"
   inkscape:version="1.1.2 (0a00cf5339, 2022-02-04)"
   xmlns:inkscape="http://www.inkscape.org/namespaces/inkscape"
   xmlns:sodipodi="http://sodipodi.sourceforge.net/DTD/sodipodi-0.dtd"
   xmlns="http://www.w3.org/2000/svg"
   xmlns:svg="http://www.w3.org/2000/svg"><defs
     id="defs6"><clipPath
       clipPathUnits="userSpaceOnUse"
       id="clipPath16"><path
         d="M 0,500 H 500 V 0 H 0 Z"
         id="path14" /></clipPath><clipPath
       clipPathUnits="userSpaceOnUse"
       id="clipPath30"><path
         d="M 0,500 H 500 V 0 H 0 Z"
         id="path28" /></clipPath><clipPath
       clipPathUnits="userSpaceOnUse"
       id="clipPath168"><path
         d="M 0,500 H 500 V 0 H 0 Z"
         id="path166" /></clipPath><clipPath
       clipPathUnits="userSpaceOnUse"
       id="clipPath340"><path
         d="M 0,500 H 500 V 0 H 0 Z"
         id="path338" /></clipPath><pattern
       patternTransform="translate(-414.1037,625.737)"
       patternUnits="userSpaceOnUse"
       x="0"
       y="0"
       width="314.984"
       height="314.984"
       id="pattern346"><path
         d="M 314.984,0 0,0 l 0,314.984 314.984,0 0,-314.984 z"
         style="fill:#a4b6c5;fill-opacity:1;fill-rule:nonzero;stroke:none"
         id="path344" /></pattern><pattern
       patternTransform="translate(-414.1037,625.737)"
       patternUnits="userSpaceOnUse"
       x="0"
       y="0"
       width="314.984"
       height="314.984"
       id="pattern354"><path
         d="M 314.984,0 0,0 l 0,314.984 314.984,0 0,-314.984 z"
         style="fill:#a4b6c5;fill-opacity:1;fill-rule:nonzero;stroke:none"
         id="path352" /></pattern><pattern
       patternTransform="translate(-414.1037,625.737)"
       patternUnits="userSpaceOnUse"
       x="0"
       y="0"
       width="314.984"
       height="314.984"
       id="pattern362"><path
         d="M 314.984,0 0,0 l 0,314.984 314.984,0 0,-314.984 z"
         style="fill:#a4b6c5;fill-opacity:1;fill-rule:nonzero;stroke:none"
         id="path360" /></pattern><pattern
       patternTransform="translate(-414.1037,625.737)"
       patternUnits="userSpaceOnUse"
       x="0"
       y="0"
       width="314.984"
       height="314.984"
       id="pattern370"><path
         d="M 314.984,0 0,0 l 0,314.984 314.984,0 0,-314.984 z"
         style="fill:#a4b6c5;fill-opacity:1;fill-rule:nonzero;stroke:none"
         id="path368" /></pattern><pattern
       patternTransform="translate(-414.1037,625.737)"
       patternUnits="userSpaceOnUse"
       x="0"
       y="0"
       width="314.984"
       height="314.984"
       id="pattern378"><path
         d="M 314.984,0 0,0 l 0,314.984 314.984,0 0,-314.984 z"
         style="fill:#a4b6c5;fill-opacity:1;fill-rule:nonzero;stroke:none"
         id="path376" /></pattern><pattern
       patternTransform="translate(-414.1037,625.737)"
       patternUnits="userSpaceOnUse"
       x="0"
       y="0"
       width="314.984"
       height="314.984"
       id="pattern386"><path
         d="M 314.984,0 0,0 l 0,314.984 314.984,0 0,-314.984 z"
         style="fill:#a4b6c5;fill-opacity:1;fill-rule:nonzero;stroke:none"
         id="path384" /></pattern><pattern
       patternTransform="translate(-414.1037,625.737)"
       patternUnits="userSpaceOnUse"
       x="0"
       y="0"
       width="314.984"
       height="314.984"
       id="pattern394"><path
         d="M 314.984,0 0,0 l 0,314.984 314.984,0 0,-314.984 z"
         style="fill:#a4b6c5;fill-opacity:1;fill-rule:nonzero;stroke:none"
         id="path392" /></pattern><pattern
       patternTransform="translate(-414.1037,625.737)"
       patternUnits="userSpaceOnUse"
       x="0"
       y="0"
       width="314.984"
       height="314.984"
       id="pattern402"><path
         d="M 314.984,0 0,0 l 0,314.984 314.984,0 0,-314.984 z"
         style="fill:#a4b6c5;fill-opacity:1;fill-rule:nonzero;stroke:none"
         id="path400" /></pattern><pattern
       patternTransform="translate(-414.1037,625.737)"
       patternUnits="userSpaceOnUse"
       x="0"
       y="0"
       width="314.984"
       height="314.984"
       id="pattern410"><path
         d="M 314.984,0 0,0 l 0,314.984 314.984,0 0,-314.984 z"
         style="fill:#a4b6c5;fill-opacity:1;fill-rule:nonzero;stroke:none"
         id="path408" /></pattern><pattern
       patternTransform="translate(-414.1037,625.737)"
       patternUnits="userSpaceOnUse"
       x="0"
       y="0"
       width="314.984"
       height="314.984"
       id="pattern418"><path
         d="M 314.984,0 0,0 l 0,314.984 314.984,0 0,-314.984 z"
         style="fill:#a4b6c5;fill-opacity:1;fill-rule:nonzero;stroke:none"
         id="path416" /></pattern><pattern
       patternTransform="translate(-414.1037,625.737)"
       patternUnits="userSpaceOnUse"
       x="0"
       y="0"
       width="314.984"
       height="314.984"
       id="pattern424"><path
         d="M 314.984,0 0,0 l 0,314.984 314.984,0 0,-314.984 z"
         style="fill:#a4b6c5;fill-opacity:1;fill-rule:nonzero;stroke:none"
         id="path422" /></pattern><pattern
       patternTransform="translate(-414.1037,625.737)"
       patternUnits="userSpaceOnUse"
       x="0"
       y="0"
       width="314.984"
       height="314.984"
       id="pattern432"><path
         d="M 314.984,0 0,0 l 0,314.984 314.984,0 0,-314.984 z"
         style="fill:#a4b6c5;fill-opacity:1;fill-rule:nonzero;stroke:none"
         id="path430" /></pattern><pattern
       patternTransform="translate(-414.1037,625.737)"
       patternUnits="userSpaceOnUse"
       x="0"
       y="0"
       width="314.984"
       height="314.984"
       id="pattern440"><path
         d="M 314.984,0 0,0 l 0,314.984 314.984,0 0,-314.984 z"
         style="fill:#a4b6c5;fill-opacity:1;fill-rule:nonzero;stroke:none"
         id="path438" /></pattern><pattern
       patternTransform="translate(-414.1037,625.737)"
       patternUnits="userSpaceOnUse"
       x="0"
       y="0"
       width="314.984"
       height="314.984"
       id="pattern448"><path
         d="M 314.984,0 0,0 l 0,314.984 314.984,0 0,-314.984 z"
         style="fill:#a4b6c5;fill-opacity:1;fill-rule:nonzero;stroke:none"
         id="path446" /></pattern><pattern
       patternTransform="translate(-414.1037,625.737)"
       patternUnits="userSpaceOnUse"
       x="0"
       y="0"
       width="314.984"
       height="314.984"
       id="pattern456"><path
         d="M 314.984,0 0,0 l 0,314.984 314.984,0 0,-314.984 z"
         style="fill:#a4b6c5;fill-opacity:1;fill-rule:nonzero;stroke:none"
         id="path454" /></pattern><pattern
       patternTransform="translate(-414.1037,625.737)"
       patternUnits="userSpaceOnUse"
       x="0"
       y="0"
       width="314.984"
       height="314.984"
       id="pattern462"><path
         d="M 314.984,0 0,0 l 0,314.984 314.984,0 0,-314.984 z"
         style="fill:#a4b6c5;fill-opacity:1;fill-rule:nonzero;stroke:none"
         id="path460" /></pattern><pattern
       patternTransform="translate(-414.1037,625.737)"
       patternUnits="userSpaceOnUse"
       x="0"
       y="0"
       width="314.984"
       height="314.984"
       id="pattern470"><path
         d="M 314.984,0 0,0 l 0,314.984 314.984,0 0,-314.984 z"
         style="fill:#a4b6c5;fill-opacity:1;fill-rule:nonzero;stroke:none"
         id="path468" /></pattern><pattern
       patternTransform="translate(-414.1037,625.737)"
       patternUnits="userSpaceOnUse"
       x="0"
       y="0"
       width="314.984"
       height="314.984"
       id="pattern478"><path
         d="M 314.984,0 0,0 l 0,314.984 314.984,0 0,-314.984 z"
         style="fill:#a4b6c5;fill-opacity:1;fill-rule:nonzero;stroke:none"
         id="path476" /></pattern><pattern
       patternTransform="translate(-414.1037,625.737)"
       patternUnits="userSpaceOnUse"
       x="0"
       y="0"
       width="314.984"
       height="314.984"
       id="pattern486"><path
         d="M 314.984,0 0,0 l 0,314.984 314.984,0 0,-314.984 z"
         style="fill:#a4b6c5;fill-opacity:1;fill-rule:nonzero;stroke:none"
         id="path484" /></pattern><pattern
       patternTransform="translate(-414.1037,625.737)"
       patternUnits="userSpaceOnUse"
       x="0"
       y="0"
       width="314.984"
       height="314.984"
       id="pattern494"><path
         d="M 314.984,0 0,0 l 0,314.984 314.984,0 0,-314.984 z"
         style="fill:#a4b6c5;fill-opacity:1;fill-rule:nonzero;stroke:none"
         id="path492" /></pattern><pattern
       patternTransform="translate(-414.1037,625.737)"
       patternUnits="userSpaceOnUse"
       x="0"
       y="0"
       width="314.984"
       height="314.984"
       id="pattern502"><path
         d="M 314.984,0 0,0 l 0,314.984 314.984,0 0,-314.984 z"
         style="fill:#a4b6c5;fill-opacity:1;fill-rule:nonzero;stroke:none"
         id="path500" /></pattern><pattern
       patternTransform="translate(-414.1037,625.737)"
       patternUnits="userSpaceOnUse"
       x="0"
       y="0"
       width="314.984"
       height="314.984"
       id="pattern510"><path
         d="M 314.984,0 0,0 l 0,314.984 314.984,0 0,-314.984 z"
         style="fill:#a4b6c5;fill-opacity:1;fill-rule:nonzero;stroke:none"
         id="path508" /></pattern></defs><sodipodi:namedview
     id="namedview4"
     pagecolor="#ffffff"
     bordercolor="#666666"
     borderopacity="1.0"
     inkscape:pageshadow="2"
     inkscape:pageopacity="0.0"
     inkscape:pagecheckerboard="0"
     showgrid="false"
     width="512px"
     inkscape:zoom="0.59099998"
     inkscape:cx="313.02877"
     inkscape:cy="230.96447"
     inkscape:window-width="1920"
     inkscape:window-height="971"
     inkscape:window-x="0"
     inkscape:window-y="40"
     inkscape:window-maximized="1"
     inkscape:current-layer="g8" /><g
     id="g8"
     inkscape:groupmode="layer"
     inkscape:label="2486045"
     transform="matrix(1.3333333,0,0,-1.3333333,0,666.66667)"><g
       id="g1032"
       transform="matrix(0.82385183,0,0,0.82385183,-14.374984,71.820871)"><g
         id="g10"><g
           id="g12"
           clip-path="url(#clipPath16)"><g
             id="g18"
             transform="translate(76.7383,187.3613)"><path
               d="m 0,0 c -47.185,43.286 -2.846,97.92 41.068,113.008 0.791,0.271 1.592,0.541 2.405,0.808 64.998,21.374 72.337,97.063 145.272,105.553 72.492,8.438 65.947,-37.024 135.995,-37.024 57.6,0 73.552,-56.538 25.399,-105.667 C 300.812,26.351 348.949,-63.855 266.408,-72.691 204.16,-79.355 196.306,-24.521 61.89,-10.445 39.782,-8.13 13.409,-12.302 0,0"
               style="fill:#d6edff;fill-opacity:1;fill-rule:nonzero;stroke:none"
               id="path20" /></g></g></g><path
         d="m 275.972,166.146 h -44.911 v -30.577 h 44.911 z"
         style="fill:#3f7eb0;fill-opacity:1;fill-rule:nonzero;stroke:none"
         id="path22" /><g
         id="g32"
         transform="translate(105.5542,152.4219)"><path
           d="m 0,0 c -8.155,0 -14.79,6.635 -14.79,14.79 v 187.705 c 0,8.155 6.635,14.79 14.79,14.79 h 295.924 c 8.156,0 14.79,-6.635 14.79,-14.79 V 14.79 C 310.714,6.635 304.08,0 295.924,0 Z"
           style="fill:#4a94cf;fill-opacity:1;fill-rule:nonzero;stroke:none"
           id="path34" /></g><g
         id="g36"
         transform="translate(408.2666,354.9214)"><path
           d="m 0,0 v -187.71 c 0,-3.75 -3.04,-6.79 -6.79,-6.79 h -295.92 c -3.75,0 -6.79,3.04 -6.79,6.79 V 0 c 0,3.75 3.04,6.79 6.79,6.79 H -6.79 C -3.04,6.79 0,3.75 0,0"
           style="fill:#d6edff;fill-opacity:1;fill-rule:nonzero;stroke:none"
           id="path38" /></g><path
         d="M 392.63,191.053 H 253.517 V 330.167 H 392.63 Z"
         style="fill:#ffffff;fill-opacity:1;fill-rule:nonzero;stroke:none"
         id="path40" /><g
         id="g42"
         transform="translate(322.4258,227.5508)"><path
           d="m 0,0 v -36.54 h -36.489 v 19.19 c 0,2.8 1.739,5.3 4.369,6.271 l 16.85,6.239 6.26,1.981 z"
           style="fill:#bae1ff;fill-opacity:1;fill-rule:nonzero;stroke:none"
           id="path44" /></g><g
         id="g46"
         transform="translate(360.2158,210.2012)"><path
           d="m 0,0 v -19.19 h -36.5 v 36.54 l 9.061,-2.87 6.219,-1.97 16.85,-6.239 C -1.75,5.3 0,2.8 0,0"
           style="fill:#bae1ff;fill-opacity:1;fill-rule:nonzero;stroke:none"
           id="path48" /></g><path
         d="m 332.777,222.715 h -19.361 v 19.361 h 19.361 z"
         style="fill:#de9c73;fill-opacity:1;fill-rule:nonzero;stroke:none"
         id="path50" /><g
         id="g52"
         transform="translate(302.3008,267.7339)"><path
           d="M 0,0 H 4.853 V -11.667 H 1.608 c -1.05,0 -1.962,0.729 -2.192,1.755 l -1.608,7.173 C -2.508,-1.334 -1.439,0 0,0"
           style="fill:#e8b799;fill-opacity:1;fill-rule:nonzero;stroke:none"
           id="path54" /></g><g
         id="g56"
         transform="translate(323.0732,294.0273)"><path
           d="m 0,0 -23.021,-12.564 6.686,-34.009 c 0.749,-3.809 3.759,-7.577 7.677,-10.584 1.573,-1.206 3.518,-1.828 5.502,-1.828 h 6.735 c 2.142,0 4.217,0.748 5.867,2.113 3.45,2.853 6.175,6.669 6.888,10.299 l 7.979,40.587 z"
           style="fill:#e8b799;fill-opacity:1;fill-rule:nonzero;stroke:none"
           id="path58" /></g><g
         id="g60"
         transform="translate(343.8457,267.7339)"><path
           d="m 0,0 h -4.853 v -11.667 h 3.244 c 1.051,0 1.963,0.729 2.193,1.755 l 1.608,7.173 C 2.508,-1.334 1.439,0 0,0"
           style="fill:#e8b799;fill-opacity:1;fill-rule:nonzero;stroke:none"
           id="path62" /></g><g
         id="g64"
         transform="translate(299.5225,284.1616)"><path
           d="m 0,0 4.312,-21.936 1.878,1.296 c 0.986,0.68 1.522,1.842 1.401,3.032 L 5.094,6.875 2.584,5.592 C 0.603,4.579 -0.467,2.375 -0.038,0.191 Z"
           style="fill:#54472d;fill-opacity:1;fill-rule:nonzero;stroke:none"
           id="path66" /></g><g
         id="g68"
         transform="translate(346.6006,284.1616)"><path
           d="m 0,0 -4.312,-21.936 -1.879,1.296 c -0.985,0.68 -1.521,1.842 -1.4,3.032 L -5.094,6.875 -2.585,5.592 C -0.604,4.579 0.467,2.375 0.037,0.191 Z"
           style="fill:#54472d;fill-opacity:1;fill-rule:nonzero;stroke:none"
           id="path70" /></g><g
         id="g72"
         transform="translate(351.8574,297.6069)"><path
           d="m 0,0 h -43.063 c -3.069,0 -5.557,-2.488 -5.557,-5.558 v -10.599 h 35.756 C -5.76,-16.157 0,-10.397 0,-3.292 Z"
           style="fill:#54472d;fill-opacity:1;fill-rule:nonzero;stroke:none"
           id="path74" /></g><g
         id="g76"
         transform="translate(308.2109,279.8296)"><path
           d="m 0,0 c 0,-3.399 -1.542,-6.155 -3.443,-6.155 -1.903,0 -3.445,2.756 -3.445,6.155 0,3.4 1.542,6.156 3.445,6.156 C -1.542,6.156 0,3.4 0,0"
           style="fill:#54472d;fill-opacity:1;fill-rule:nonzero;stroke:none"
           id="path78" /></g><g
         id="g80"
         transform="translate(344.8623,279.8296)"><path
           d="m 0,0 c 0,-3.399 -1.541,-6.155 -3.443,-6.155 -1.902,0 -3.444,2.756 -3.444,6.155 0,3.4 1.542,6.156 3.444,6.156 C -1.541,6.156 0,3.4 0,0"
           style="fill:#54472d;fill-opacity:1;fill-rule:nonzero;stroke:none"
           id="path82" /></g><g
         id="g84"
         transform="translate(323.0957,227.5508)"><path
           d="m 0,0 v -36.54 h -6.159 l 0.649,3.95 3.861,23.521 -1.561,2.12 -1.47,1.979 0.12,0.13 3.89,4.13 0.25,0.261 z"
           style="fill:#99d2ff;fill-opacity:1;fill-rule:nonzero;stroke:none"
           id="path86" /></g><g
         id="g88"
         transform="translate(329.2559,191.0107)"><path
           d="M 0,0 H -6.16 V 36.54 L -5.77,36.12 -5.54,35.881 -1.6,31.7 -1.479,31.57 -2.97,29.551 -4.51,27.471 -0.649,3.95 Z"
           style="fill:#99d2ff;fill-opacity:1;fill-rule:nonzero;stroke:none"
           id="path90" /></g><g
         id="g92"
         transform="translate(307.1533,222.7148)"><path
           d="M 0,0 6.263,9.681 16.566,4.841 10.738,-5.722 Z"
           style="fill:#d6edff;fill-opacity:1;fill-rule:nonzero;stroke:none"
           id="path94" /></g><g
         id="g96"
         transform="translate(338.9932,222.7148)"><path
           d="m 0,0 -6.263,9.681 -10.303,-4.84 5.828,-10.563 z"
           style="fill:#d6edff;fill-opacity:1;fill-rule:nonzero;stroke:none"
           id="path98" /></g><g
         id="g100"
         transform="translate(334.5244,310.8872)"><path
           d="M 0,0 V -5.083 H 33.092 V -37.54 h 5.083 V 0 Z M 33.092,-95.462 H 0 v -5.084 H 38.175 V -61.71 H 33.092 Z M -62.371,0 v -37.54 h 5.083 v 32.457 h 33.117 V 0 Z m 5.083,-61.71 h -5.083 v -38.836 h 38.2 v 5.084 h -33.117 z"
           style="fill:#99d2ff;fill-opacity:1;fill-rule:nonzero;stroke:none"
           id="path102" /></g><g
         id="g104"
         transform="translate(299.0547,139.5703)"><path
           d="m 0,0 h -91.077 c -2.209,0 -4,-1.791 -4,-4.001 0,-2.209 1.791,-4 4,-4 H 0 c 2.209,0 4,1.791 4,4 C 4,-1.791 2.209,0 0,0"
           style="fill:#4a94cf;fill-opacity:1;fill-rule:nonzero;stroke:none"
           id="path106" /></g><path
         d="m 212.249,319.917 h -97.692 v 9.398 h 97.692 z"
         style="fill:#ffffff;fill-opacity:1;fill-rule:nonzero;stroke:none"
         id="path108" /><path
         d="m 212.249,304.319 h -97.692 v 9.398 h 97.692 z"
         style="fill:#ffffff;fill-opacity:1;fill-rule:nonzero;stroke:none"
         id="path110" /><path
         d="m 212.249,288.722 h -97.692 v 9.398 h 97.692 z"
         style="fill:#ffffff;fill-opacity:1;fill-rule:nonzero;stroke:none"
         id="path112" /><path
         d="m 212.249,273.124 h -97.692 v 9.398 h 97.692 z"
         style="fill:#ffffff;fill-opacity:1;fill-rule:nonzero;stroke:none"
         id="path114" /><path
         d="m 212.249,257.526 h -97.692 v 9.398 h 97.692 z"
         style="fill:#ffffff;fill-opacity:1;fill-rule:nonzero;stroke:none"
         id="path116" /><path
         d="m 212.249,241.929 h -97.692 v 9.398 h 97.692 z"
         style="fill:#ffffff;fill-opacity:1;fill-rule:nonzero;stroke:none"
         id="path118" /><path
         d="m 212.249,226.331 h -97.692 v 9.398 h 97.692 z"
         style="fill:#ffffff;fill-opacity:1;fill-rule:nonzero;stroke:none"
         id="path120" /><path
         d="m 212.249,210.733 h -97.692 v 9.398 h 97.692 z"
         style="fill:#ffffff;fill-opacity:1;fill-rule:nonzero;stroke:none"
         id="path122" /><path
         d="m 212.249,195.136 h -97.692 v 9.398 h 97.692 z"
         style="fill:#ffffff;fill-opacity:1;fill-rule:nonzero;stroke:none"
         id="path124" /><path
         d="m 240.721,319.917 h -24.695 v 9.398 h 24.695 z"
         style="fill:#ffffff;fill-opacity:1;fill-rule:nonzero;stroke:none"
         id="path126" /><path
         d="m 240.721,304.319 h -24.695 v 9.398 h 24.695 z"
         style="fill:#ffffff;fill-opacity:1;fill-rule:nonzero;stroke:none"
         id="path128" /><path
         d="m 240.721,288.722 h -24.695 v 9.398 h 24.695 z"
         style="fill:#ffffff;fill-opacity:1;fill-rule:nonzero;stroke:none"
         id="path130" /><path
         d="m 240.721,273.124 h -24.695 v 9.398 h 24.695 z"
         style="fill:#ffffff;fill-opacity:1;fill-rule:nonzero;stroke:none"
         id="path132" /><path
         d="m 240.721,257.526 h -24.695 v 9.398 h 24.695 z"
         style="fill:#ffffff;fill-opacity:1;fill-rule:nonzero;stroke:none"
         id="path134" /><path
         d="m 240.721,241.929 h -24.695 v 9.398 h 24.695 z"
         style="fill:#ffffff;fill-opacity:1;fill-rule:nonzero;stroke:none"
         id="path136" /><path
         d="m 240.721,226.331 h -24.695 v 9.398 h 24.695 z"
         style="fill:#ffffff;fill-opacity:1;fill-rule:nonzero;stroke:none"
         id="path138" /><path
         d="m 240.721,210.733 h -24.695 v 9.398 h 24.695 z"
         style="fill:#ffffff;fill-opacity:1;fill-rule:nonzero;stroke:none"
         id="path140" /><path
         d="m 240.721,195.136 h -24.695 v 9.398 h 24.695 z"
         style="fill:#ffffff;fill-opacity:1;fill-rule:nonzero;stroke:none"
         id="path142" /><path
         d="M 392.63,176.916 H 253.517 v 9.229 H 392.63 Z"
         style="fill:#4a94cf;fill-opacity:1;fill-rule:nonzero;stroke:none"
         id="path144" /><path
         d="m 285.934,176.916 h -32.417 v 9.229 h 32.417 z"
         style="fill:#ffffff;fill-opacity:1;fill-rule:nonzero;stroke:none"
         id="path146" /><path
         d="m 240.997,176.916 h -126.44 v 9.229 h 126.44 z"
         style="fill:#ffffff;fill-opacity:1;fill-rule:nonzero;stroke:none"
         id="path148" /><path
         d="m 108.348,348.966 h 23.727 v -7.221 h -23.727 z"
         style="fill:#4a94cf;fill-opacity:1;fill-rule:nonzero;stroke:none"
         id="path150" /><path
         d="m 368.903,348.966 h 23.727 v -7.221 h -23.727 z"
         style="fill:#4a94cf;fill-opacity:1;fill-rule:nonzero;stroke:none"
         id="path152" /><path
         d="m 155.572,348.966 h 177.205 v -7.221 H 155.572 Z"
         style="fill:#4a94cf;fill-opacity:1;fill-rule:nonzero;stroke:none"
         id="path154" /><g
         id="g162"><g
           id="g164"
           clip-path="url(#clipPath168)"><g
             id="g170"
             transform="translate(265.4746,348.9712)"><path
               d="m 0,0 c 0,-34.889 -16.146,-65.989 -41.344,-86.204 -16.37,-13.127 -36.58,-21.655 -58.661,-23.629 -2.872,-0.267 -5.765,-0.406 -8.701,-0.437 -0.383,-0.011 -0.766,-0.011 -1.148,-0.011 h -0.054 c -0.393,0 -0.798,0 -1.191,0.011 -2.904,0.02 -5.776,0.17 -8.616,0.427 -22.124,1.964 -42.355,10.49 -58.756,23.65 -25.198,20.214 -41.334,51.315 -41.334,86.193 0,60.899 49.205,110.271 109.897,110.271 C -49.205,110.271 0,60.899 0,0"
               style="fill:#99d2ff;fill-opacity:1;fill-rule:nonzero;stroke:none"
               id="path172" /></g><g
             id="g174"
             transform="translate(154.5034,303.2085)"><path
               d="m 0,0 v -52.373 c -2.593,0.019 -5.157,0.152 -7.693,0.38 -19.757,1.748 -37.822,9.337 -52.468,21.048 v 2.327 c 0,4.616 2.878,8.748 7.209,10.353 l 27.772,10.286 10.325,3.268 z"
               style="fill:#bae1ff;fill-opacity:1;fill-rule:nonzero;stroke:none"
               id="path176" /></g><g
             id="g178"
             transform="translate(216.7925,274.5908)"><path
               d="m 0,0 v -2.337 c -14.618,-11.683 -32.664,-19.271 -52.382,-21.029 -2.565,-0.237 -5.148,-0.361 -7.77,-0.389 v 52.373 l 14.931,-4.73 10.249,-3.249 L -7.2,10.353 C -2.868,8.748 0,4.616 0,0"
               style="fill:#bae1ff;fill-opacity:1;fill-rule:nonzero;stroke:none"
               id="path180" /></g><path
             d="m 171.569,295.229 h -31.917 v 31.917 h 31.917 z"
             style="fill:#de9c73;fill-opacity:1;fill-rule:nonzero;stroke:none"
             id="path182" /><g
             id="g184"
             transform="translate(121.3281,369.4434)"><path
               d="M 0,0 H 8 V -19.232 H 2.652 c -1.733,0 -3.235,1.202 -3.614,2.893 L -3.614,-4.515 C -4.133,-2.2 -2.373,0 0,0"
               style="fill:#e8b799;fill-opacity:1;fill-rule:nonzero;stroke:none"
               id="path186" /></g><g
             id="g188"
             transform="translate(155.5718,412.7881)"><path
               d="m 0,0 -37.949,-20.712 11.022,-56.065 c 1.234,-6.278 6.195,-12.491 12.655,-17.446 2.593,-1.99 5.8,-3.014 9.069,-3.014 H 5.9 c 3.532,0 6.953,1.233 9.673,3.484 5.686,4.704 10.178,10.993 11.355,16.977 l 13.154,66.908 z"
               style="fill:#e8b799;fill-opacity:1;fill-rule:nonzero;stroke:none"
               id="path190" /></g><g
             id="g192"
             transform="translate(189.8159,369.4434)"><path
               d="m 0,0 h -8 v -19.232 h 5.348 c 1.733,0 3.235,1.202 3.614,2.893 L 3.614,-4.515 C 4.133,-2.2 2.373,0 0,0"
               style="fill:#e8b799;fill-opacity:1;fill-rule:nonzero;stroke:none"
               id="path194" /></g><g
             id="g196"
             transform="translate(116.748,396.5239)"><path
               d="m 0,0 7.109,-36.161 3.097,2.137 c 1.623,1.12 2.507,3.035 2.307,4.997 L 8.397,11.334 4.261,9.218 C 0.994,7.548 -0.77,3.915 -0.062,0.315 Z"
               style="fill:#54472d;fill-opacity:1;fill-rule:nonzero;stroke:none"
               id="path198" /></g><g
             id="g200"
             transform="translate(194.3569,396.5239)"><path
               d="m 0,0 -7.109,-36.161 -3.097,2.137 c -1.623,1.12 -2.507,3.035 -2.307,4.997 l 4.116,40.361 4.136,-2.116 C -0.994,7.548 0.77,3.915 0.062,0.315 Z"
               style="fill:#54472d;fill-opacity:1;fill-rule:nonzero;stroke:none"
               id="path202" /></g><g
             id="g204"
             transform="translate(203.0229,418.6895)"><path
               d="m 0,0 h -70.989 c -5.06,0 -9.162,-4.102 -9.162,-9.162 v -17.473 h 58.944 C -9.495,-26.635 0,-17.14 0,-5.428 Z"
               style="fill:#54472d;fill-opacity:1;fill-rule:nonzero;stroke:none"
               id="path206" /></g><g
             id="g208"
             transform="translate(131.0713,389.3833)"><path
               d="m 0,0 c 0,-5.604 -2.542,-10.147 -5.677,-10.147 -3.136,0 -5.677,4.543 -5.677,10.147 0,5.604 2.541,10.147 5.677,10.147 C -2.542,10.147 0,5.604 0,0"
               style="fill:#54472d;fill-opacity:1;fill-rule:nonzero;stroke:none"
               id="path210" /></g><g
             id="g212"
             transform="translate(191.4922,389.3833)"><path
               d="m 0,0 c 0,-5.604 -2.542,-10.147 -5.677,-10.147 -3.135,0 -5.677,4.543 -5.677,10.147 0,5.604 2.542,10.147 5.677,10.147 C -2.542,10.147 0,5.604 0,0"
               style="fill:#54472d;fill-opacity:1;fill-rule:nonzero;stroke:none"
               id="path214" /></g><g
             id="g216"
             transform="translate(155.6147,303.2085)"><path
               d="m 0,0 v -52.382 h -0.047 c -0.352,0 -0.713,0 -1.064,0.009 -2.593,0.019 -5.158,0.152 -7.694,0.38 l 6.089,37.043 -2.584,3.486 -2.412,3.257 0.218,0.228 6.383,6.801 0.408,0.437 z"
               style="fill:#99d2ff;fill-opacity:1;fill-rule:nonzero;stroke:none"
               id="path218" /></g><g
             id="g220"
             transform="translate(164.4102,251.2251)"><path
               d="m 0,0 c -2.564,-0.237 -5.148,-0.361 -7.77,-0.39 -0.341,-0.009 -0.683,-0.009 -1.025,-0.009 v 52.382 l 0.646,-0.683 0.379,-0.409 6.469,-6.886 0.218,-0.228 -2.46,-3.315 -2.545,-3.429 z"
               style="fill:#99d2ff;fill-opacity:1;fill-rule:nonzero;stroke:none"
               id="path222" /></g><g
             id="g224"
             transform="translate(129.3281,295.2295)"><path
               d="M 0,0 10.324,15.958 27.31,7.979 17.702,-9.434 Z"
               style="fill:#d6edff;fill-opacity:1;fill-rule:nonzero;stroke:none"
               id="path226" /></g><g
             id="g228"
             transform="translate(181.8159,295.2295)"><path
               d="M 0,0 -10.324,15.958 -27.31,7.979 -17.703,-9.434 Z"
               style="fill:#d6edff;fill-opacity:1;fill-rule:nonzero;stroke:none"
               id="path230" /></g><g
             id="g232"
             transform="translate(171.1973,406.0947)"><path
               d="m 0,0 v -6.116 h 39.817 v -39.053 h 6.117 V 0 Z M 39.817,-114.864 H 0 v -6.116 h 45.934 v 46.728 H 39.817 Z M -75.047,0 v -45.169 h 6.116 v 39.053 h 39.848 V 0 Z m 6.116,-74.252 h -6.116 v -46.728 h 45.964 v 6.116 h -39.848 z"
               style="fill:#ffffff;fill-opacity:1;fill-rule:nonzero;stroke:none"
               id="path234" /></g><g
             id="g236"
             transform="translate(138.6279,378.4531)"><path
               d="m 0,0 c 0,-1.206 -0.978,-2.183 -2.184,-2.183 -1.205,0 -2.183,0.977 -2.183,2.183 0,1.206 0.978,2.184 2.183,2.184 C -0.978,2.184 0,1.206 0,0"
               style="fill:#ffffff;fill-opacity:1;fill-rule:nonzero;stroke:none"
               id="path238" /></g><g
             id="g240"
             transform="translate(158.2881,371.6265)"><path
               d="m 0,0 c 0,-1.206 -0.978,-2.183 -2.183,-2.183 -1.206,0 -2.183,0.977 -2.183,2.183 0,1.206 0.977,2.184 2.183,2.184 C -0.978,2.184 0,1.206 0,0"
               style="fill:#ffffff;fill-opacity:1;fill-rule:nonzero;stroke:none"
               id="path242" /></g><g
             id="g244"
             transform="translate(134.2612,354.418)"><path
               d="m 0,0 c 0,-1.206 -0.977,-2.183 -2.183,-2.183 -1.206,0 -2.183,0.977 -2.183,2.183 0,1.206 0.977,2.183 2.183,2.183 C -0.977,2.183 0,1.206 0,0"
               style="fill:#ffffff;fill-opacity:1;fill-rule:nonzero;stroke:none"
               id="path246" /></g><g
             id="g248"
             transform="translate(152.6504,352.2349)"><path
               d="m 0,0 c 0,-1.206 -0.978,-2.183 -2.183,-2.183 -1.206,0 -2.183,0.977 -2.183,2.183 0,1.206 0.977,2.183 2.183,2.183 C -0.978,2.183 0,1.206 0,0"
               style="fill:#ffffff;fill-opacity:1;fill-rule:nonzero;stroke:none"
               id="path250" /></g><g
             id="g252"
             transform="translate(147.7285,325.1089)"><path
               d="m 0,0 c 0,-1.206 -0.978,-2.183 -2.183,-2.183 -1.206,0 -2.183,0.977 -2.183,2.183 0,1.206 0.977,2.183 2.183,2.183 C -0.978,2.183 0,1.206 0,0"
               style="fill:#ffffff;fill-opacity:1;fill-rule:nonzero;stroke:none"
               id="path254" /></g><g
             id="g256"
             transform="translate(169.8633,325.1089)"><path
               d="m 0,0 c 0,-1.206 -0.978,-2.183 -2.183,-2.183 -1.206,0 -2.184,0.977 -2.184,2.183 0,1.206 0.978,2.183 2.184,2.183 C -0.978,2.183 0,1.206 0,0"
               style="fill:#ffffff;fill-opacity:1;fill-rule:nonzero;stroke:none"
               id="path258" /></g><g
             id="g260"
             transform="translate(158.8237,335.9844)"><path
               d="m 0,0 c 0,-1.206 -0.978,-2.183 -2.183,-2.183 -1.206,0 -2.183,0.977 -2.183,2.183 0,1.206 0.977,2.183 2.183,2.183 C -0.978,2.183 0,1.206 0,0"
               style="fill:#ffffff;fill-opacity:1;fill-rule:nonzero;stroke:none"
               id="path262" /></g><g
             id="g264"
             transform="translate(136.4443,378.4531)"><path
               d="M 0,0 19.661,-6.827 14.023,-26.218 20.196,-42.469 9.101,-53.344 -4.366,-24.035 0,0 14.023,-26.218"
               style="fill:none;stroke:#ffffff;stroke-width:1;stroke-linecap:butt;stroke-linejoin:miter;stroke-miterlimit:10;stroke-dasharray:none;stroke-opacity:1"
               id="path266" /></g><g
             id="g268"
             transform="translate(174.4111,378.4531)"><path
               d="m 0,0 c 0,-1.206 0.978,-2.183 2.183,-2.183 1.206,0 2.183,0.977 2.183,2.183 0,1.206 -0.977,2.184 -2.183,2.184 C 0.978,2.184 0,1.206 0,0"
               style="fill:#ffffff;fill-opacity:1;fill-rule:nonzero;stroke:none"
               id="path270" /></g><g
             id="g272"
             transform="translate(178.7773,354.418)"><path
               d="m 0,0 c 0,-1.206 0.978,-2.183 2.183,-2.183 1.206,0 2.183,0.977 2.183,2.183 0,1.206 -0.977,2.183 -2.183,2.183 C 0.978,2.183 0,1.206 0,0"
               style="fill:#ffffff;fill-opacity:1;fill-rule:nonzero;stroke:none"
               id="path274" /></g><g
             id="g276"
             transform="translate(160.3882,352.2349)"><path
               d="m 0,0 c 0,-1.206 0.978,-2.183 2.183,-2.183 1.206,0 2.184,0.977 2.184,2.183 0,1.206 -0.978,2.183 -2.184,2.183 C 0.978,2.183 0,1.206 0,0"
               style="fill:#ffffff;fill-opacity:1;fill-rule:nonzero;stroke:none"
               id="path278" /></g><g
             id="g280"
             transform="translate(176.5942,378.4531)"><path
               d="m 0,0 4.366,-24.035 -13.467,-29.309 -11.095,10.875 6.173,16.251 -5.638,19.391 L 0,0 -14.023,-26.218"
               style="fill:none;stroke:#ffffff;stroke-width:1;stroke-linecap:butt;stroke-linejoin:miter;stroke-miterlimit:10;stroke-dasharray:none;stroke-opacity:1"
               id="path282" /></g><g
             id="g284"
             transform="translate(435.1387,160.4229)"><path
               d="m 0,0 c 0,-13.225 -6.12,-25.013 -15.672,-32.675 -6.205,-4.975 -13.865,-8.208 -22.235,-8.957 -1.088,-0.1 -2.185,-0.153 -3.298,-0.166 -0.146,-0.004 -0.29,-0.004 -0.436,-0.004 h -0.019 c -0.15,0 -0.303,0 -0.452,0.004 -1.101,0.009 -2.19,0.066 -3.266,0.162 -8.386,0.744 -16.055,3.977 -22.271,8.965 -9.552,7.662 -15.668,19.451 -15.668,32.671 0,23.084 18.651,41.798 41.657,41.798 C -18.651,41.798 0,23.084 0,0"
               style="fill:#99d2ff;fill-opacity:1;fill-rule:nonzero;stroke:none"
               id="path286" /></g><g
             id="g288"
             transform="translate(374.3643,162.7256)"><path
               d="m 0,0 19.116,-15.048 18.759,27.32"
               style="fill:none;stroke:#ffffff;stroke-width:7;stroke-linecap:butt;stroke-linejoin:miter;stroke-miterlimit:10;stroke-dasharray:none;stroke-opacity:1"
               id="path290" /></g><g
             id="g292"
             transform="translate(130.5386,203.8516)"><path
               d="m 0,0 c 0,-10.087 -4.668,-19.078 -11.953,-24.922 -4.732,-3.795 -10.574,-6.26 -16.958,-6.831 -0.83,-0.077 -1.667,-0.117 -2.515,-0.126 -0.111,-0.003 -0.222,-0.003 -0.333,-0.003 h -0.015 c -0.114,0 -0.23,0 -0.344,0.003 -0.84,0.006 -1.67,0.049 -2.491,0.123 -6.396,0.569 -12.245,3.033 -16.986,6.838 -7.285,5.844 -11.949,14.834 -11.949,24.918 0,17.604 14.224,31.878 31.77,31.878 C -14.225,31.878 0,17.604 0,0"
               style="fill:#99d2ff;fill-opacity:1;fill-rule:nonzero;stroke:none"
               id="path294" /></g><g
             id="g296"
             transform="translate(98.7661,218.2764)"><path
               d="M 0,0 -13.655,-4.473 V -17.2 c 0,-8.831 7.375,-14.045 13.655,-15.989 6.28,1.944 13.655,7.158 13.655,15.989 v 12.727 z"
               style="fill:#ffffff;fill-opacity:1;fill-rule:nonzero;stroke:none"
               id="path298" /></g><g
             id="g300"
             transform="translate(97.5591,206.0684)"><path
               d="M 0,0 C 0,0.678 0.552,1.229 1.23,1.229 1.909,1.229 2.46,0.678 2.46,0 V -1.684 H 0 Z M 4.024,-1.684 V 0 C 4.024,1.54 2.771,2.794 1.23,2.794 -0.31,2.794 -1.564,1.54 -1.564,0 v -1.684 h -1.237 v -8.014 h 8.016 v 8.014 z"
               style="fill:#99d2ff;fill-opacity:1;fill-rule:nonzero;stroke:none"
               id="path302" /></g><g
             id="g304"
             transform="translate(434.2881,354.6035)"><path
               d="m 0,0 c 0,-13.225 -6.12,-25.013 -15.671,-32.675 -6.205,-4.976 -13.865,-8.209 -22.235,-8.957 -1.089,-0.101 -2.186,-0.154 -3.298,-0.166 -0.146,-0.004 -0.291,-0.004 -0.436,-0.004 h -0.02 c -0.15,0 -0.303,0 -0.451,0.004 -1.101,0.008 -2.19,0.065 -3.266,0.162 -8.387,0.744 -16.055,3.977 -22.271,8.965 -9.552,7.662 -15.668,19.45 -15.668,32.671 0,23.083 18.651,41.798 41.656,41.798 C -18.65,41.798 0,23.083 0,0"
               style="fill:#99d2ff;fill-opacity:1;fill-rule:nonzero;stroke:none"
               id="path306" /></g><g
             id="g308"
             transform="translate(414.8018,361.7236)"><path
               d="m 0,0 c 0,-9.494 -7.696,-17.189 -17.189,-17.189 -9.495,0 -17.19,7.695 -17.19,17.189 0,9.494 7.695,17.189 17.19,17.189 C -7.696,17.189 0,9.494 0,0 Z"
               style="fill:none;stroke:#ffffff;stroke-width:7;stroke-linecap:butt;stroke-linejoin:miter;stroke-miterlimit:10;stroke-dasharray:none;stroke-opacity:1"
               id="path310" /></g><g
             id="g312"
             transform="translate(371.4238,333.8931)"><path
               d="M 0,0 14.503,14.503"
               style="fill:none;stroke:#ffffff;stroke-width:7;stroke-linecap:round;stroke-linejoin:miter;stroke-miterlimit:10;stroke-dasharray:none;stroke-opacity:1"
               id="path314" /></g><g
             id="g316"
             transform="translate(220.4355,158.9883)"><path
               d="m 0,0 c 0,-13.226 -6.12,-25.014 -15.671,-32.676 -6.205,-4.975 -13.866,-8.208 -22.236,-8.957 -1.088,-0.1 -2.185,-0.153 -3.298,-0.166 -0.145,-0.004 -0.29,-0.004 -0.435,-0.004 h -0.02 c -0.15,0 -0.302,0 -0.452,0.004 -1.1,0.009 -2.189,0.066 -3.265,0.162 -8.387,0.744 -16.055,3.977 -22.272,8.965 -9.551,7.662 -15.667,19.451 -15.667,32.672 0,23.083 18.65,41.798 41.656,41.798 C -18.651,41.798 0,23.083 0,0"
               style="fill:#99d2ff;fill-opacity:1;fill-rule:nonzero;stroke:none"
               id="path318" /></g><path
             d="m 191.59,140.267 h -25.626 v 25.626 h 25.626 z"
             style="fill:#ffffff;fill-opacity:1;fill-rule:nonzero;stroke:none"
             id="path320" /><g
             id="g322"
             transform="translate(178.8521,177.7051)"><path
               d="m 0,0 v 0 c -3.538,0 -6.433,-2.895 -6.433,-6.433 v -9.929 c 0,-3.538 2.895,-6.433 6.433,-6.433 3.538,0 6.433,2.895 6.433,6.433 v 9.929 C 6.433,-2.895 3.538,0 0,0 Z"
               style="fill:none;stroke:#ffffff;stroke-width:5;stroke-linecap:butt;stroke-linejoin:miter;stroke-miterlimit:10;stroke-dasharray:none;stroke-opacity:1"
               id="path324" /></g><g
             id="g326"
             transform="translate(181.3047,154.9102)"><path
               d="m 0,0 c 0,-1.354 -1.098,-2.453 -2.453,-2.453 -1.354,0 -2.452,1.099 -2.452,2.453 0,1.354 1.098,2.452 2.452,2.452 C -1.098,2.452 0,1.354 0,0"
               style="fill:#99d2ff;fill-opacity:1;fill-rule:nonzero;stroke:none"
               id="path328" /></g><g
             id="g330"
             transform="translate(178.7773,148.9551)"><path
               d="m 0,0 v 0 c -0.522,0 -0.95,0.427 -0.95,0.949 v 4.154 c 0,0.522 0.428,0.95 0.95,0.95 0.522,0 0.95,-0.428 0.95,-0.95 V 0.949 C 0.95,0.427 0.522,0 0,0"
               style="fill:#99d2ff;fill-opacity:1;fill-rule:nonzero;stroke:none"
               id="path332" /></g></g></g></g></g></svg>
