<?xml version="1.0" encoding="UTF-8" standalone="no"?>
<svg
   width="128"
   height="128"
   viewBox="0 0 128 128"
   fill="none"
   stroke="currentColor"
   stroke-width="2"
   stroke-linecap="round"
   stroke-linejoin="round"
   class="icon icon-tabler icons-tabler-outline icon-tabler-user-scan"
   version="1.1"
   id="svg16"
   sodipodi:docname="logo.svg"
   inkscape:version="1.1.2 (0a00cf5339, 2022-02-04)"
   inkscape:export-filename="/home/sergio/Documentos/Projetos/face-finder/client/src/assets/logo.png"
   inkscape:export-xdpi="24"
   inkscape:export-ydpi="24"
   xmlns:inkscape="http://www.inkscape.org/namespaces/inkscape"
   xmlns:sodipodi="http://sodipodi.sourceforge.net/DTD/sodipodi-0.dtd"
   xmlns="http://www.w3.org/2000/svg"
   xmlns:svg="http://www.w3.org/2000/svg">
  <defs
     id="defs20">
    <inkscape:path-effect
       effect="powerclip"
       id="path-effect1425"
       is_visible="true"
       lpeversion="1"
       inverse="true"
       flatten="false"
       hide_clip="false"
       message="Usar a regra de preenchimento par ou ímpar na caixa de diálogo &lt;b&gt;preenchimento e contorno&lt;/b&gt; se nenhum resultado nivelar após converter o clipe em caminhos." />
    <clipPath
       clipPathUnits="userSpaceOnUse"
       id="clipPath1421">
      <path
         style="display:none;fill:none;stroke:#000000;stroke-width:6;stroke-linecap:round;stroke-linejoin:round;stroke-miterlimit:4;stroke-dasharray:none"
         d="m 73.075173,91.154501 a 18.079329,18.079329 0 1 0 36.158657,0 18.079329,18.079329 0 1 0 -36.158657,0"
         id="path1423"
         clip-path="none" />
      <path
         id="lpe_path-effect1425"
         style="fill:none;stroke:#000000;stroke-width:6;stroke-linecap:round;stroke-linejoin:round;stroke-miterlimit:4;stroke-dasharray:none"
         class="powerclip"
         d="M 27.283868,66.186842 H 99.154501 V 99.154501 H 27.283868 Z m 45.791305,24.967659 a 18.079329,18.079329 0 1 0 36.158657,0 18.079329,18.079329 0 1 0 -36.158657,0" />
    </clipPath>
  </defs>
  <sodipodi:namedview
     id="namedview18"
     pagecolor="#ffffff"
     bordercolor="#666666"
     borderopacity="1.0"
     inkscape:pageshadow="2"
     inkscape:pageopacity="0.0"
     inkscape:pagecheckerboard="0"
     showgrid="false"
     width="128px"
     inkscape:zoom="2.0520834"
     inkscape:cx="0"
     inkscape:cy="54.335024"
     inkscape:window-width="1920"
     inkscape:window-height="971"
     inkscape:window-x="0"
     inkscape:window-y="40"
     inkscape:window-maximized="1"
     inkscape:current-layer="svg16" />
  <rect
     style="font-variation-settings:'wght' 473;fill:#000000;stroke:none;stroke-width:8.06282"
     id="rect855"
     width="128"
     height="128"
     x="0"
     y="0"
     ry="39.431702" />
  <g
     id="g912"
     transform="matrix(0.62878463,0,0,0.62878463,22.841827,22.841827)"
     style="stroke:#ffffff;stroke-opacity:1">
    <path
       d="m 50.251526,43.767697 a 12.967658,12.967658 0 1 0 25.935316,0 12.967658,12.967658 0 0 0 -25.935316,0"
       id="path4"
       style="stroke:#ffffff;stroke-width:10;stroke-miterlimit:4;stroke-dasharray:none;stroke-opacity:1" />
    <path
       d="M 11.348551,37.283868 V 24.31621 A 12.967658,12.967658 0 0 1 24.31621,11.348551 h 12.967658"
       id="path6"
       style="stroke:#ffffff;stroke-width:10;stroke-miterlimit:4;stroke-dasharray:none;stroke-opacity:1" />
    <path
       d="M 11.348551,89.154501 V 102.12216 A 12.967658,12.967658 0 0 0 24.31621,115.08982 H 37.283868"
       id="path8"
       style="stroke:#ffffff;stroke-width:10;stroke-miterlimit:4;stroke-dasharray:none;stroke-opacity:1" />
    <path
       d="M 89.154501,11.348551 H 102.12216 A 12.967658,12.967658 0 0 1 115.08982,24.31621 V 37.283868"
       id="path10"
       style="stroke:#ffffff;stroke-width:10;stroke-miterlimit:4;stroke-dasharray:none;stroke-opacity:1" />
    <path
       style="stroke:#ffffff;stroke-width:10;stroke-miterlimit:4;stroke-dasharray:none;stroke-opacity:1"
       d="M 37.283868,89.154501 A 12.967658,12.967658 0 0 1 50.251526,76.186842 h 25.935316 a 12.967658,12.967658 0 0 1 12.967659,12.967659"
       id="path14"
       clip-path="url(#clipPath1421)"
       inkscape:path-effect="#path-effect1425"
       inkscape:original-d="M 37.283868,89.154501 A 12.967658,12.967658 0 0 1 50.251526,76.186842 h 25.935316 a 12.967658,12.967658 0 0 1 12.967659,12.967659" />
    <path
       style="fill:none;stroke:#ffffff;stroke-width:10;stroke-linecap:round;stroke-linejoin:round;stroke-miterlimit:4;stroke-dasharray:none;stroke-opacity:1"
       d="m 73.075173,91.154501 a 18.07933,18.07933 0 1 0 36.158657,0 18.07933,18.07933 0 1 0 -36.158657,0"
       id="path1324-3" />
    <path
       style="fill:none;stroke:#ffffff;stroke-width:10;stroke-linecap:round;stroke-linejoin:round;stroke-miterlimit:4;stroke-dasharray:none;stroke-opacity:1"
       d="M 91.154501,91.154501"
       id="path839" />
    <path
       d="M 119.56487,119.56487 104.06831,104.06831"
       id="path841"
       style="fill:none;stroke:#ffffff;stroke-width:10;stroke-linecap:round;stroke-linejoin:round;stroke-miterlimit:4;stroke-dasharray:none;stroke-opacity:1" />
  </g>
</svg>
